<svg width="32" height="32" viewBox="0 0 32 32" fill="none" xmlns="http://www.w3.org/2000/svg">
<g clip-path="url(#clip0_1687_2)">
<rect width="32" height="32" rx="5" fill="#0036FF"/>
<path fill-rule="evenodd" clip-rule="evenodd" d="M7.42394 10.3231L5.3248 13.2028C5.06085 13.5383 3.4016 15.7165 3.22946 16.1013L4.54772 16.2319C4.09709 16.63 3.47271 16.9142 3.02146 17.3173L2.92151 17.4196C3.32286 17.3874 4.24484 17.2397 4.56214 17.324C4.04683 17.5309 3.45386 17.791 2.95344 18.0231C2.54285 18.2136 1.68152 18.4854 1.36914 18.7454L4.1178 18.7445L2.89307 19.1553C3.30118 19.3082 3.74663 19.3273 4.14405 19.4874C4.34785 19.5693 4.23549 19.5185 4.32283 19.588L2.78488 19.6428C3.13854 19.9673 9.57211 22.3765 11.5356 23.1997C11.7886 23.3058 13.9748 25.0038 16.0082 24.981C17.7632 24.9612 20.9664 23.0194 21.3807 22.8437C23.5817 21.9103 23.7369 21.9089 25.9615 21.0306C26.5278 20.807 27.0755 20.5798 27.6309 20.3613C28.0672 20.1897 28.9105 19.8973 29.2898 19.6815C28.9533 19.5191 28.2128 19.6187 27.7624 19.5792L27.9338 19.4935C27.9721 19.4796 28.0701 19.4567 28.1139 19.4458L29.1715 19.1802C28.9597 18.989 28.2592 18.8747 27.9662 18.756L30.7426 18.7443C30.2649 18.4133 28.1297 17.5918 27.5263 17.3072L29.1855 17.4143L28.3687 16.8165C28.1165 16.6502 27.7599 16.4676 27.5567 16.2315C27.7772 16.2027 28.0072 16.1892 28.2324 16.1663L28.8659 16.0605C28.7132 15.8028 28.5274 15.5671 28.3472 15.3304L25.753 11.7984C25.4193 11.339 24.9736 10.831 24.699 10.3231C25.0855 9.16322 25.6221 8.24202 25.8459 6.93864C26.0263 5.88746 26.1577 3.97814 24.724 3.73548C24.7377 3.759 19.2626 7.10218 19.2856 7.09037C25.0165 4.13489 24.8221 3.94878 24.8353 3.97013C25.0867 4.37507 25.2794 4.53934 25.3323 5.14483C25.452 6.51509 24.2101 8.97394 23.6065 9.42683C22.7904 8.62812 21.0318 7.48363 19.6574 7.40191C19.1634 7.37233 18.8574 7.3668 18.7204 7.71717C18.4915 8.30327 18.2808 8.89825 18.0572 9.50224C17.8535 10.0522 17.1746 12.0257 16.9048 12.5288C16.8076 12.71 16.7517 12.702 16.643 12.8801C15.91 14.0827 16.8998 15.6664 17.4821 16.342C17.974 15.7615 17.9805 15.3294 19.0104 14.9683C20.5049 14.4443 22.1926 15.3936 23.3898 16.1112C23.7372 16.3197 24.849 17.094 25.0348 17.342C24.8832 17.5711 22.9899 18.9024 22.6377 19.1569C22.4195 19.3143 22.2365 19.4543 22.0345 19.6125C21.6694 19.8987 20.489 20.8507 20.1829 20.9384L20.0778 20.8016L20.2544 20.6115C20.6967 20.2729 21.3129 19.9799 21.6788 19.5828C21.1275 19.7308 20.4822 20.1647 19.9404 20.2882C20.0607 20.1692 20.2086 19.9958 20.3444 19.8704C20.4917 19.7339 20.6282 19.6815 20.7538 19.4821C20.3964 19.6889 19.9755 19.928 19.5986 20.1122C19.446 20.0226 19.1937 19.7388 19.0456 19.566C18.8671 19.3579 18.6775 19.1881 18.5137 18.984C18.3159 18.7381 18.2086 18.6435 17.9814 18.4018C17.7619 18.1682 17.6954 18.0454 17.4264 17.8058L16.5394 20.6001C17.7768 20.8582 18.259 22.6313 17.2897 23.4993C15.7191 24.9048 13.5019 23.011 14.632 21.2887C14.8938 20.8895 15.125 20.8247 15.5419 20.5728L14.6992 17.8001L13.6116 18.9298C13.3606 19.2178 12.783 19.9545 12.5248 20.1112L11.3389 19.4766C11.38 19.5071 11.6337 19.788 11.7286 19.8659C11.9027 20.009 12.0112 20.1489 12.1706 20.2843C11.6651 20.2198 10.9371 19.7105 10.4149 19.574C10.6502 19.7732 10.9351 19.9727 11.2065 20.1625L11.8283 20.6001C11.9746 20.7073 11.943 20.6619 12.0127 20.7956L11.9113 20.9526C11.6698 20.8483 10.9548 20.2679 10.6893 20.0708L8.25766 18.2691C7.90292 18.0157 7.33582 17.6517 7.07311 17.342C7.22367 17.1206 7.26387 17.1606 7.45474 17.0057C7.58795 16.8977 7.72228 16.79 7.86223 16.6891C8.02071 16.5748 8.13444 16.4995 8.2902 16.39C9.71063 15.3936 12.4843 13.9116 13.9996 15.5324L14.6414 16.3377C15.3497 15.6408 16.1179 13.8685 15.4445 12.8615C14.9663 12.146 13.7969 8.76674 13.4021 7.71431C13.2696 7.36098 12.9405 7.379 12.5241 7.39835C11.0407 7.46673 9.46455 8.61952 8.51585 9.42287C7.89366 8.93968 6.12625 5.41569 7.31167 3.86848C19.337 10.6973 7.3734 3.79512 7.4046 3.73438C6.09336 3.96792 6.05665 5.61669 6.28498 6.93164C6.39204 7.5488 6.57726 8.10583 6.76787 8.67494C6.96037 9.24909 7.25411 9.79862 7.42394 10.3231Z" fill="white"/>
<path fill-rule="evenodd" clip-rule="evenodd" d="M19.6829 16.9615C18.419 17.4191 19.0619 19.2432 20.2648 18.8726C21.5244 18.4845 20.8883 16.525 19.6829 16.9615Z" fill="white"/>
<path fill-rule="evenodd" clip-rule="evenodd" d="M11.8386 16.9544C10.6663 17.3107 11.104 19.2732 12.4258 18.8668C13.6043 18.5045 13.1865 16.5449 11.8386 16.9544Z" fill="white"/>
</g>
<defs>
<clipPath id="clip0_1687_2">
<rect width="32" height="32" rx="5" fill="white"/>
</clipPath>
</defs>
</svg>
