<svg width="40" height="40" viewBox="0 0 40 40" fill="none" xmlns="http://www.w3.org/2000/svg">
<rect width="40" height="40" rx="7" fill="url(#paint0_linear_1648_4)"/>
<path fill-rule="evenodd" clip-rule="evenodd" d="M11.8507 11.8288L9.86907 14.5471C9.61988 14.8638 8.05349 16.9199 7.89098 17.2832L9.13548 17.4064C8.71006 17.7822 8.12062 18.0505 7.69462 18.431L7.60027 18.5275C7.97915 18.4972 8.84954 18.3577 9.14909 18.4373C8.66261 18.6326 8.10282 18.8781 7.6304 19.0972C7.2428 19.2771 6.42966 19.5336 6.13477 19.779L8.72961 19.7782L7.57342 20.1659C7.95869 20.3103 8.37922 20.3283 8.75439 20.4794C8.94679 20.5567 8.84071 20.5088 8.92317 20.5744L7.47128 20.6261C7.80515 20.9324 13.8787 23.2065 15.7323 23.9836C15.9711 24.0838 18.035 25.6866 19.9546 25.6651C21.6114 25.6464 24.6354 23.8135 25.0265 23.6476C27.1043 22.7665 27.2508 22.7652 29.3509 21.9361C29.8856 21.7251 30.4026 21.5106 30.9269 21.3043C31.3388 21.1424 32.1349 20.8663 32.493 20.6627C32.1753 20.5093 31.4762 20.6033 31.0511 20.5661L31.2129 20.4851C31.2491 20.4721 31.3415 20.4505 31.3829 20.4401L32.3813 20.1894C32.1813 20.009 31.5201 19.9011 31.2435 19.789L33.8645 19.778C33.4135 19.4655 31.3978 18.6901 30.8282 18.4215L32.3946 18.5225L31.6234 17.9582C31.3854 17.8013 31.0487 17.6289 30.8569 17.406C31.065 17.3788 31.2822 17.3661 31.4947 17.3445L32.0928 17.2446C31.9487 17.0013 31.7732 16.7789 31.6032 16.5554L29.1541 13.2214C28.8391 12.7877 28.4183 12.3082 28.1591 11.8288C28.5239 10.7339 29.0305 9.86436 29.2418 8.63404C29.4121 7.64178 29.5362 5.83948 28.1827 5.61042C28.1956 5.63262 23.0269 8.78841 23.0486 8.77726C28.4588 5.98744 28.2753 5.81176 28.2878 5.83192C28.5251 6.21416 28.707 6.36922 28.7569 6.94077C28.87 8.23422 27.6975 10.5553 27.1277 10.9828C26.3573 10.2288 24.6971 9.14848 23.3996 9.07134C22.9332 9.04342 22.6444 9.03819 22.515 9.36893C22.299 9.92217 22.1001 10.4838 21.8889 11.0539C21.6967 11.5731 21.0558 13.4359 20.801 13.9109C20.7092 14.0819 20.6566 14.0743 20.5539 14.2424C19.8619 15.3777 20.7964 16.8726 21.346 17.5103C21.8104 16.9623 21.8166 16.5545 22.7889 16.2136C24.1997 15.719 25.7929 16.6151 26.9231 17.2925C27.2512 17.4893 28.3007 18.2202 28.4761 18.4543C28.333 18.6705 26.5456 19.9272 26.2131 20.1674C26.0071 20.316 25.8344 20.4482 25.6437 20.5975C25.299 20.8676 24.1847 21.7663 23.8958 21.8491L23.7965 21.72L23.9632 21.5405C24.3807 21.2209 24.9625 20.9443 25.3079 20.5695C24.7874 20.7092 24.1783 21.1188 23.6668 21.2354C23.7803 21.123 23.9199 20.9593 24.0481 20.841C24.1872 20.7121 24.3161 20.6627 24.4347 20.4745C24.0972 20.6696 23.7 20.8953 23.3441 21.0692C23.2001 20.9846 22.9618 20.7168 22.822 20.5536C22.6536 20.3572 22.4745 20.1969 22.3199 20.0042C22.1332 19.7722 22.0319 19.6828 21.8174 19.4547C21.6102 19.2341 21.5474 19.1183 21.2935 18.8921L20.4561 21.5298C21.6243 21.7734 22.0795 23.4471 21.1644 24.2664C19.6817 25.5932 17.5886 23.8055 18.6554 22.1798C18.9026 21.8029 19.1209 21.7417 19.5144 21.504L18.7188 18.8867L17.6921 19.9531C17.4551 20.2249 16.9099 20.9203 16.6662 21.0683L15.5467 20.4692C15.5854 20.498 15.8249 20.7632 15.9145 20.8367C16.0788 20.9717 16.1813 21.1039 16.3317 21.2316C15.8546 21.1708 15.1673 20.69 14.6743 20.5612C14.8965 20.7492 15.1654 20.9376 15.4216 21.1167L16.0086 21.5298C16.1468 21.631 16.1169 21.5881 16.1827 21.7143L16.087 21.8625C15.859 21.7641 15.1841 21.2162 14.9334 21.0301L12.6378 19.3294C12.3029 19.0902 11.7676 18.7466 11.5195 18.4543C11.6617 18.2453 11.6996 18.283 11.8798 18.1368C12.0056 18.0349 12.1324 17.9332 12.2645 17.8379C12.4141 17.7301 12.5215 17.659 12.6685 17.5556C14.0095 16.6151 16.6279 15.2161 18.0584 16.7461L18.6643 17.5063C19.333 16.8484 20.0582 15.1755 19.4225 14.2249C18.971 13.5496 17.8671 10.3597 17.4943 9.36623C17.3693 9.0327 17.0586 9.04972 16.6655 9.06798C15.2651 9.13253 13.7772 10.2207 12.8815 10.979C12.2942 10.5229 10.6257 7.19645 11.7448 5.73596C23.0971 12.182 11.803 5.66672 11.8325 5.60938C10.5946 5.82983 10.56 7.38619 10.7755 8.62743C10.8766 9.21 11.0514 9.7358 11.2314 10.273C11.4131 10.815 11.6904 11.3337 11.8507 11.8288Z" fill="white"/>
<path fill-rule="evenodd" clip-rule="evenodd" d="M23.1883 17.4333C21.8357 17.9137 22.5237 19.8283 23.811 19.4393C25.1589 19.0319 24.4782 16.9752 23.1883 17.4333Z" fill="white"/>
<path fill-rule="evenodd" clip-rule="evenodd" d="M16.5127 17.4336C15.2794 17.8061 15.7399 19.8585 17.1303 19.4335C18.3701 19.0546 17.9306 17.0052 16.5127 17.4336Z" fill="white"/>
<path d="M12.7372 32.1797V28.5433H14.9318V28.9339H13.1776V30.1626H14.8182V30.5533H13.1776V31.7891H14.9602V32.1797H12.7372ZM17.2312 30.4254V30.8161H15.6403V30.4254H17.2312ZM18.3875 30.5391V32.1797H17.9685V29.4524H18.3733V29.8786H18.4088C18.4727 29.7401 18.5698 29.6288 18.7 29.5447C18.8302 29.4595 18.9983 29.4169 19.2043 29.4169C19.3889 29.4169 19.5505 29.4548 19.689 29.5305C19.8275 29.6051 19.9352 29.7188 20.0122 29.8714C20.0891 30.023 20.1276 30.2147 20.1276 30.4467V32.1797H19.7085V30.4751C19.7085 30.2609 19.6529 30.094 19.5416 29.9744C19.4304 29.8537 19.2777 29.7933 19.0835 29.7933C18.9498 29.7933 18.8302 29.8223 18.7249 29.8803C18.6207 29.9383 18.5384 30.023 18.4781 30.1342C18.4177 30.2455 18.3875 30.3804 18.3875 30.5391ZM22.0012 32.2365C21.755 32.2365 21.539 32.1779 21.3532 32.0607C21.1685 31.9435 21.0241 31.7796 20.9199 31.5689C20.8169 31.3582 20.7654 31.112 20.7654 30.8303C20.7654 30.5462 20.8169 30.2982 20.9199 30.0863C21.0241 29.8744 21.1685 29.7099 21.3532 29.5927C21.539 29.4755 21.755 29.4169 22.0012 29.4169C22.2475 29.4169 22.4629 29.4755 22.6475 29.5927C22.8334 29.7099 22.9778 29.8744 23.0808 30.0863C23.185 30.2982 23.237 30.5462 23.237 30.8303C23.237 31.112 23.185 31.3582 23.0808 31.5689C22.9778 31.7796 22.8334 31.9435 22.6475 32.0607C22.4629 32.1779 22.2475 32.2365 22.0012 32.2365ZM22.0012 31.8601C22.1883 31.8601 22.3422 31.8121 22.4629 31.7163C22.5836 31.6204 22.673 31.4943 22.731 31.3381C22.789 31.1818 22.818 31.0125 22.818 30.8303C22.818 30.648 22.789 30.4781 22.731 30.3207C22.673 30.1632 22.5836 30.036 22.4629 29.9389C22.3422 29.8419 22.1883 29.7933 22.0012 29.7933C21.8142 29.7933 21.6603 29.8419 21.5396 29.9389C21.4189 30.036 21.3295 30.1632 21.2715 30.3207C21.2135 30.4781 21.1845 30.648 21.1845 30.8303C21.1845 31.0125 21.2135 31.1818 21.2715 31.3381C21.3295 31.4943 21.4189 31.6204 21.5396 31.7163C21.6603 31.8121 21.8142 31.8601 22.0012 31.8601ZM25.0628 29.4524V29.8075H23.6494V29.4524H25.0628ZM24.0613 28.799H24.4804V31.3984C24.4804 31.5168 24.4975 31.6056 24.5319 31.6648C24.5674 31.7228 24.6124 31.7618 24.6668 31.782C24.7224 31.8009 24.781 31.8104 24.8426 31.8104C24.8888 31.8104 24.9266 31.808 24.9562 31.8033C24.9858 31.7973 25.0095 31.7926 25.0273 31.7891L25.1125 32.1655C25.0841 32.1761 25.0444 32.1868 24.9935 32.1974C24.9426 32.2093 24.8781 32.2152 24.8 32.2152C24.6816 32.2152 24.5656 32.1897 24.452 32.1388C24.3395 32.0879 24.246 32.0104 24.1714 31.9062C24.098 31.8021 24.0613 31.6707 24.0613 31.5121V28.799ZM26.8073 32.2365C26.5445 32.2365 26.3178 32.1785 26.1272 32.0625C25.9378 31.9453 25.7916 31.782 25.6887 31.5724C25.5869 31.3617 25.536 31.1167 25.536 30.8374C25.536 30.558 25.5869 30.3118 25.6887 30.0987C25.7916 29.8845 25.9349 29.7176 26.1183 29.598C26.303 29.4773 26.5184 29.4169 26.7646 29.4169C26.9067 29.4169 27.047 29.4406 27.1855 29.4879C27.324 29.5353 27.45 29.6122 27.5637 29.7188C27.6773 29.8241 27.7678 29.9638 27.8353 30.1378C27.9028 30.3118 27.9365 30.526 27.9365 30.7805V30.9581H25.8343V30.5959H27.5104C27.5104 30.442 27.4796 30.3047 27.4181 30.1839C27.3577 30.0632 27.2713 29.9679 27.1588 29.8981C27.0476 29.8282 26.9162 29.7933 26.7646 29.7933C26.5977 29.7933 26.4533 29.8348 26.3314 29.9176C26.2107 29.9993 26.1177 30.1058 26.0526 30.2372C25.9875 30.3686 25.955 30.5095 25.955 30.6598V30.9013C25.955 31.1072 25.9905 31.2818 26.0615 31.4251C26.1337 31.5671 26.2338 31.6754 26.3616 31.75C26.4894 31.8234 26.638 31.8601 26.8073 31.8601C26.9173 31.8601 27.0168 31.8447 27.1056 31.8139C27.1955 31.782 27.2731 31.7346 27.3382 31.6719C27.4033 31.608 27.4536 31.5286 27.4891 31.4339L27.8939 31.5476C27.8513 31.6849 27.7797 31.8056 27.6791 31.9098C27.5785 32.0128 27.4542 32.0933 27.3062 32.1513C27.1582 32.2081 26.9919 32.2365 26.8073 32.2365Z" fill="white"/>
<defs>
<linearGradient id="paint0_linear_1648_4" x1="40" y1="0" x2="-7.5" y2="45.5" gradientUnits="userSpaceOnUse">
<stop stop-color="#969277"/>
<stop offset="1" stop-color="#DBD4CB"/>
</linearGradient>
</defs>
</svg>
