<?xml version="1.0" encoding="UTF-8"?>
<!DOCTYPE svg PUBLIC "-//W3C//DTD SVG 1.1//EN" "http://www.w3.org/Graphics/SVG/1.1/DTD/svg11.dtd">
<!-- Creator: CorelDRAW 2019 (64-Bit) -->
<svg xmlns="http://www.w3.org/2000/svg" xml:space="preserve" width="200mm" height="200mm" version="1.1" style="shape-rendering:geometricPrecision; text-rendering:geometricPrecision; image-rendering:optimizeQuality; fill-rule:evenodd; clip-rule:evenodd"
viewBox="0 0 20000 20000"
 xmlns:xlink="http://www.w3.org/1999/xlink"
 xmlns:xodm="http://www.corel.com/coreldraw/odm/2003">
 <defs>
  <style type="text/css">
   <![CDATA[
    .str0 {stroke:#FEFEFE;stroke-width:282.22;stroke-miterlimit:22.9256}
    .fil0 {fill:#1F1B20}
    .fil1 {fill:#FEFEFE}
   ]]>
  </style>
 </defs>
 <g id="Слой_x0020_1">
  <metadata id="CorelCorpID_0Corel-Layer"/>
  <circle class="fil0" cx="9992.87" cy="10000.53" r="9920.15"/>
  <path class="fil1 str0" d="M9992.87 890.31c5031.43,0 9110.22,4078.79 9110.22,9110.22 0,5031.43 -4078.79,9110.22 -9110.22,9110.22 -5031.43,0 -9110.22,-4078.79 -9110.22,-9110.22 0,-5031.43 4078.79,-9110.22 9110.22,-9110.22zm0 360.41c4832.38,0 8749.81,3917.43 8749.81,8749.81 0,4832.38 -3917.43,8749.81 -8749.81,8749.81 -4832.38,0 -8749.81,-3917.43 -8749.81,-8749.81 0,-4832.38 3917.43,-8749.81 8749.81,-8749.81z"/>
  <path class="fil1" d="M5561.14 7212.67l-1092.9 1499.14c-137.43,174.64 -1001.31,1308.59 -1090.93,1508.95l686.35 67.95c-234.62,207.3 -559.7,355.24 -794.65,565.09l-52.02 53.24c208.95,-16.74 688.98,-93.65 854.17,-49.78 -268.29,107.73 -577.01,243.16 -837.56,363.97 -213.77,99.18 -662.22,240.65 -824.86,376.02l1431.08 -0.44 -637.65 213.82c212.48,79.63 444.41,89.57 651.32,172.9 106.11,42.61 47.61,16.18 93.08,52.37l-800.73 28.54c184.13,168.92 3533.74,1423.11 4556.01,1851.68 131.72,55.25 1269.98,939.2 2328.63,927.32 913.72,-10.27 2581.47,-1021.17 2797.16,-1112.67 1145.96,-485.92 1226.73,-486.63 2384.96,-943.87 294.87,-116.38 580.04,-234.68 869.19,-348.43 227.12,-89.31 666.19,-241.55 863.67,-353.89 -175.21,-84.56 -560.72,-32.72 -795.22,-53.24l89.24 -44.66c19.96,-7.19 70.96,-19.12 93.8,-24.83l550.6 -138.26c-110.29,-99.51 -474.97,-159.04 -627.52,-220.82l1445.51 -6.11c-248.73,-172.31 -1360.38,-599.98 -1674.55,-748.12l863.87 55.75 -425.29 -311.22c-131.27,-86.55 -316.95,-181.63 -422.73,-304.54 114.77,-15.02 234.55,-22.02 351.77,-33.95l329.82 -55.05c-79.48,-134.21 -176.23,-256.88 -270.03,-380.13l-1350.69 -1838.73c-173.73,-239.16 -405.78,-503.61 -548.74,-768 201.21,-603.85 480.61,-1083.42 597.12,-1761.94 93.92,-547.25 162.37,-1541.23 -584.08,-1667.55 7.12,12.24 -2843.48,1752.68 -2831.49,1746.53 2983.74,-1538.61 2882.55,-1635.49 2889.41,-1624.38 130.88,210.81 231.23,296.33 258.76,611.54 62.35,713.35 -584.28,1993.41 -898.52,2229.18 -424.92,-415.79 -1340.48,-1011.62 -2056.09,-1054.15 -257.21,-15.4 -416.51,-18.28 -487.85,164.11 -119.14,305.13 -228.84,614.87 -345.29,929.3 -106.04,286.34 -459.49,1313.68 -599.99,1575.62 -50.61,94.31 -79.67,90.14 -136.26,182.86 -381.68,626.1 133.69,1450.58 436.83,1802.27 256.13,-302.24 259.52,-527.17 795.73,-715.14 778.11,-272.8 1656.78,221.4 2280.07,594.99 180.92,108.55 759.74,511.63 856.49,640.73 -78.92,119.26 -1064.68,812.35 -1248.04,944.83 -113.62,81.93 -208.88,154.82 -314.04,237.18 -190.1,148.98 -804.65,644.58 -964.01,690.27l-54.74 -71.21 91.93 -99c230.27,-176.24 551.11,-328.81 741.59,-535.51 -287.03,77.05 -622.96,302.94 -905.05,367.23 62.61,-61.98 139.6,-152.25 210.31,-217.49 76.72,-71.1 147.75,-98.36 213.19,-202.15 -186.12,107.64 -405.22,232.1 -601.48,328.02 -79.42,-46.64 -210.82,-194.39 -287.92,-284.35 -92.91,-108.35 -191.65,-196.75 -276.91,-303.01 -102.97,-127.98 -158.85,-177.25 -277.16,-303.06 -114.25,-121.65 -148.89,-185.55 -288.95,-310.27l-461.81 1454.68c644.27,134.35 895.31,1057.44 390.66,1509.28 -817.74,731.72 -1972.11,-254.17 -1383.73,-1150.78 136.32,-207.86 256.69,-241.6 473.73,-372.74l-438.76 -1443.45 -566.25 588.12c-130.69,149.93 -431.39,533.46 -565.8,615.07l-617.44 -330.41c21.36,15.91 153.45,162.13 202.87,202.66 90.64,74.5 147.17,147.38 230.12,217.82 -263.16,-33.56 -642.2,-298.72 -914.1,-369.73 122.54,103.68 270.86,207.55 412.14,306.35l323.73 227.81c76.22,55.82 59.73,32.14 96.05,101.75l-52.81 81.74c-125.74,-54.27 -497.98,-356.45 -636.23,-459.04l-1266.01 -937.96c-184.7,-131.92 -479.95,-321.43 -616.73,-482.65 78.39,-115.23 99.31,-94.44 198.69,-175.09 69.35,-56.2 139.29,-112.27 212.16,-164.82 82.51,-59.47 141.72,-98.67 222.82,-155.7 739.53,-518.71 2183.64,-1290.25 2972.56,-446.47l334.13 419.26c368.79,-362.81 768.73,-1285.44 418.17,-1809.72 -248.98,-372.44 -857.83,-2131.68 -1063.39,-2679.56 -68.97,-183.95 -240.33,-174.57 -457.11,-164.5 -772.31,35.6 -1592.94,635.73 -2086.88,1053.95 -323.93,-251.55 -1244.13,-2086.11 -626.94,-2891.58 6260.91,3555.04 32.14,-38.18 48.37,-69.81 -682.68,121.58 -701.8,979.93 -582.92,1664.48 55.75,321.29 152.17,611.27 251.42,907.55 100.22,298.9 253.16,584.98 341.57,858.04z"/>
  <path class="fil1" d="M11813.01 10304.46c-745.99,264.92 -366.52,1320.82 343.41,1106.27 743.4,-224.65 367.99,-1358.91 -343.41,-1106.27z"/>
  <path class="fil1" d="M8132.66 10305.87c-680.16,205.48 -426.22,1337.39 340.64,1103 683.75,-208.97 441.33,-1339.23 -340.64,-1103z"/>
 </g>
</svg>
