<svg width="40" height="40" viewBox="0 0 40 40" fill="none" xmlns="http://www.w3.org/2000/svg">
<g clip-path="url(#clip0_1648_4)">
<rect width="40" height="40" rx="7" fill="url(#paint0_linear_1648_4)"/>
<g clip-path="url(#clip1_1648_4)">
<path fill-rule="evenodd" clip-rule="evenodd" d="M-8 45.557L22.5768 45.3329L20.3723 22.6227C19.7308 22.307 19.7407 22.4233 18.9968 21.9192C17.0725 20.6151 16.4784 18.0914 17.8084 15.8546C18.626 14.4795 19.7626 13.5615 21.2273 12.8564C23.2843 11.8663 25.9598 11.7229 28.0466 12.7602C29.8034 13.6335 31.332 15.7851 30.1876 18.559C30.3752 18.6051 38.1883 24.3351 38.5915 24.6221C41.0296 26.3574 43.487 28.2103 45.9329 29.9628C46.2691 30.2036 46.647 30.5138 46.9989 30.7243V-5H-8V45.557Z" fill="#147EFF"/>
<path fill-rule="evenodd" clip-rule="evenodd" d="M20.375 22.6262L22.5795 45.1472L47.0016 45.0191V30.7278C46.6497 30.5173 46.2718 30.2071 45.9356 29.9662C43.4897 28.2138 41.0323 26.3609 38.5942 24.6256C38.191 24.3386 30.3779 18.6086 30.1903 18.5625C29.0842 21.1581 26.1994 22.7588 23.5397 22.989C22.1434 23.1099 21.6251 22.9488 20.375 22.6262Z" fill="#FE3267"/>
<path fill-rule="evenodd" clip-rule="evenodd" d="M20.3719 22.6242C21.622 22.9468 22.1403 23.1079 23.5366 22.987C26.1963 22.7568 29.0811 21.1561 30.1872 18.5605C31.3317 15.7866 29.803 13.635 28.0463 12.7617C25.9594 11.7244 23.284 11.8678 21.2269 12.8579C19.7622 13.5629 18.6257 14.481 17.808 15.8561C16.478 18.0929 17.0721 20.6166 18.9964 21.9206C19.7403 22.4248 19.7305 22.3085 20.3719 22.6242Z" fill="#FEFEFE"/>
<path fill-rule="evenodd" clip-rule="evenodd" d="M1.73646 17.9551C-0.869599 18.1242 -3.02523 20.5458 -2.86461 23.609C-2.71408 26.4793 -0.491689 28.8051 2.30399 28.6434C4.90289 28.493 7.06065 26.0195 6.89185 22.9762C6.73419 20.1336 4.52524 17.7741 1.73646 17.9551Z" fill="#FEFEFE"/>
<path fill-rule="evenodd" clip-rule="evenodd" d="M38.6326 13.9344C38.4162 13.8581 38.193 13.7217 37.9852 13.6197L33.5032 11.3412C33.077 11.1198 32.6474 10.913 32.2221 10.6908C31.9617 10.5549 31.0784 9.96485 31.0411 10.6313C31.0326 10.7815 32.4156 16.9572 32.4835 17.2542C32.6075 17.7961 32.7246 18.3525 32.8444 18.9037C32.9182 19.2427 32.9709 19.4014 33.1241 19.6288C33.2275 19.7824 33.4595 19.954 33.6981 20.0261C34.2875 20.2043 34.7689 19.8494 34.9807 19.4731C35.2817 18.9387 35.084 18.4041 34.9605 17.8236C34.7543 16.8543 34.378 15.3635 34.2288 14.4805C34.5134 14.5703 36.3401 15.5499 36.8009 15.773C38.044 16.3749 39.3404 17.076 40.5997 17.7045C40.8958 17.8522 41.8259 18.4886 41.8192 17.748C41.8175 17.5553 40.1704 10.1923 40.0114 9.48548C39.6581 7.91548 38.2968 8.18302 37.8882 8.93309C37.5745 9.50882 37.7744 9.98755 37.9035 10.596C38.021 11.1495 38.1491 11.6951 38.2677 12.2498C38.3834 12.7901 38.5497 13.3954 38.6326 13.9344Z" fill="#FEFEFE"/>
<path fill-rule="evenodd" clip-rule="evenodd" d="M11.843 18.0208C11.8015 18.2044 11.6467 18.5446 11.5681 18.7365C11.4715 18.9723 11.372 19.2179 11.2834 19.4516C10.7525 20.8518 10.1224 22.3123 9.57307 23.7387L8.71845 25.8831C8.62573 26.1134 8.43895 26.4212 8.6561 26.6421C8.84867 26.8381 9.1583 26.6774 9.38971 26.6134L16.2088 24.8144C16.7958 24.6633 17.1316 24.4886 17.3077 23.9265C17.5077 23.288 17.1919 22.7306 16.8787 22.4962C16.3575 22.1061 15.9297 22.3148 15.3452 22.4666C14.6204 22.6549 12.868 23.1615 12.2795 23.268C12.3891 22.8614 12.6602 22.2883 12.8183 21.885L15.2396 15.7772C15.3301 15.5527 15.4437 15.3109 15.5179 15.086C15.6165 14.7872 15.4413 14.5354 15.1663 14.5648C14.9923 14.5834 14.6196 14.7055 14.434 14.7527C13.9455 14.8769 13.4599 15.0183 12.9719 15.1423C12.0144 15.3855 11.064 15.6559 10.1025 15.9002C9.62574 16.0213 9.14085 16.1463 8.6663 16.2798C8.08253 16.4441 7.75919 16.4978 7.49466 16.9792C7.14475 17.616 7.36491 18.5593 8.16928 18.8226C8.46254 18.9186 8.67329 18.8488 8.95226 18.7769C9.49397 18.6372 11.49 18.0772 11.843 18.0208Z" fill="#FEFEFE"/>
<path fill-rule="evenodd" clip-rule="evenodd" d="M24.2223 14.57C20.707 14.8972 17.7492 18.3768 20.4122 19.9205C22.1625 20.9351 24.4502 20.5577 26.1746 19.5674C27.7904 18.6395 29.403 16.3787 27.2601 15.1247C26.3858 14.613 25.3264 14.4672 24.2223 14.57Z" fill="#FE3267"/>
<path fill-rule="evenodd" clip-rule="evenodd" d="M1.69629 20.472C0.361132 20.6706 -0.772104 21.9652 -0.567876 23.6692C-0.394515 25.1156 0.81387 26.3452 2.34869 26.1336C3.66111 25.9527 4.80077 24.6104 4.59915 22.9403C4.42634 21.5093 3.22722 20.2443 1.69629 20.472Z" fill="#147EFF"/>
</g>
</g>
<defs>
<linearGradient id="paint0_linear_1648_4" x1="40" y1="0" x2="-7.5" y2="45.5" gradientUnits="userSpaceOnUse">
<stop stop-color="#969277"/>
<stop offset="1" stop-color="#DBD4CB"/>
</linearGradient>
<clipPath id="clip0_1648_4">
<rect width="40" height="40" rx="7" fill="white"/>
</clipPath>
<clipPath id="clip1_1648_4">
<rect width="42" height="46" fill="white" transform="translate(-2 -6)"/>
</clipPath>
</defs>
</svg>
