<svg width="41" height="41" viewBox="0 0 41 41" fill="none" xmlns="http://www.w3.org/2000/svg">
<g clip-path="url(#clip0_1654_240)">
<rect x="0.583984" y="0.585938" width="40" height="40" rx="7" fill="white"/>
<path fill-rule="evenodd" clip-rule="evenodd" d="M21.1133 20.4982C21.1133 23.1136 22.5458 25.1622 24.6127 26.1908C26.2785 27.0198 28.4407 27.0479 30.11 26.2045C30.6753 25.9189 31.0065 25.6991 31.4623 25.3125C31.61 25.1873 31.7221 25.0692 31.8547 24.9374C32.7396 24.0574 33.6378 22.5188 33.6378 20.7048V20.4391C33.6378 17.1868 30.7978 14.3047 27.532 14.3047C26.0749 14.3047 24.881 14.6509 23.756 15.4544C22.8388 16.1094 22.1531 16.9346 21.6721 17.9749C21.3446 18.6831 21.1133 19.6011 21.1133 20.4982Z" fill="#97CF26"/>
<path fill-rule="evenodd" clip-rule="evenodd" d="M5.15039 37.9995L7.04967 38.0002L7.72666 36.1703L10.9599 36.1673C11.0332 36.1673 11.0492 36.2922 11.0761 36.3639C11.108 36.4487 11.1334 36.5237 11.1631 36.6031C11.2214 36.7589 11.2787 36.9165 11.3362 37.0714L11.5981 37.7808C11.6413 37.8973 11.6425 38.0031 11.7385 38.0033C12.1811 38.0043 13.2011 38.0201 13.5831 38.0002L10.059 28.3906L8.68045 28.3924C8.60135 28.5258 5.86158 36.0604 5.58464 36.7985C5.51869 36.9743 5.16837 37.8976 5.15039 37.9995Z" fill="black"/>
<path fill-rule="evenodd" clip-rule="evenodd" d="M32.8076 31.2845C32.0231 31.3459 31.224 31.6714 30.6768 32.1857C30.45 32.3988 30.264 32.6055 30.0829 32.8885C29.1447 34.3543 29.4962 36.2068 30.7186 37.2798C31.2982 37.7884 32.2435 38.2229 33.3332 38.1418C35.1587 38.006 36.7224 36.4578 36.5689 34.4415C36.4313 32.6326 34.793 31.1292 32.8076 31.2845Z" fill="black"/>
<path fill-rule="evenodd" clip-rule="evenodd" d="M10.4648 8.41593V9.19871C10.5758 9.49888 10.4898 10.5863 11.5137 11.9211C11.7181 12.1876 11.8951 12.359 12.1189 12.5855C12.9982 13.4752 14.4708 13.999 15.809 13.9485C18.5438 13.8453 20.7576 11.609 20.7618 8.80864C20.766 6.0341 18.5309 3.72582 15.8089 3.65798C13.2269 3.59366 11.0158 5.32948 10.5483 7.8562C10.5214 8.00195 10.5022 8.31717 10.4648 8.41593Z" fill="#00AAFE"/>
<path fill-rule="evenodd" clip-rule="evenodd" d="M25.0221 31.4383L23.6062 31.4413L23.6055 32.8887L25.0167 32.8934C25.0357 33.0213 25.0225 35.0522 25.0225 35.2381C25.0225 36.0369 25.0246 36.6438 25.4134 37.2205C25.707 37.656 26.1781 37.9646 26.903 38.0864C27.7074 38.2215 28.2558 38.1056 28.9545 37.883L28.7441 36.4663C28.6473 36.47 28.5011 36.5131 28.3949 36.5287C27.9389 36.5957 27.3566 36.5742 27.0472 36.2446C26.8268 36.0098 26.8146 35.7 26.8146 35.2899C26.8146 35.0944 26.8024 33.0309 26.8192 32.8972L28.958 32.8928L28.9579 31.4439L26.8208 31.4407L26.8144 29.6336L25.0225 29.6328L25.0221 31.4383Z" fill="black"/>
<path fill-rule="evenodd" clip-rule="evenodd" d="M15.4224 38.0041H17.6906C17.7755 37.7408 17.8885 37.4661 17.9878 37.1937C18.0902 36.9128 18.1878 36.6458 18.2903 36.3708C18.4022 36.0704 20.0875 31.5246 20.091 31.438L18.3162 31.4375C18.261 31.5209 16.9234 35.2038 16.7835 35.5899C16.7517 35.6775 16.6165 36.0991 16.5531 36.1687C16.5503 36.1719 16.5454 36.1765 16.5411 36.1799C16.4966 35.9935 15.3754 33.0089 15.2382 32.6188C15.1791 32.4506 14.8479 31.5231 14.7976 31.4375H13.0254C13.0213 31.5245 15.3214 37.719 15.4224 38.0041Z" fill="black"/>
<path fill-rule="evenodd" clip-rule="evenodd" d="M27.033 4.78721C25.794 4.91739 24.9009 5.49288 24.3525 6.13256C23.7391 6.8479 23.2454 7.84065 23.3552 9.15586C23.5296 11.2444 25.3801 13.022 27.7384 12.8204C29.8208 12.6424 31.6033 10.7845 31.3915 8.43748C31.2035 6.35436 29.3238 4.54653 27.033 4.78721Z" fill="#FF6163"/>
<path fill-rule="evenodd" clip-rule="evenodd" d="M20.8438 37.9975L22.6364 38.0043L22.6398 31.4375L20.8491 31.4377L20.8438 37.9975Z" fill="black"/>
<path fill-rule="evenodd" clip-rule="evenodd" d="M32.8686 32.9813C31.8663 33.0974 31.1517 33.9681 31.2683 34.932C31.3777 35.8361 32.2119 36.6102 33.2729 36.487C34.1712 36.3827 34.978 35.5801 34.8551 34.5412C34.7472 33.6294 33.9113 32.8605 32.8686 32.9813Z" fill="white"/>
<path fill-rule="evenodd" clip-rule="evenodd" d="M15.2147 17.6794C13.7325 17.8923 12.4756 19.2288 12.7226 20.9872C12.9272 22.4443 14.2976 23.7006 16.0263 23.4548C17.4864 23.2471 18.7334 21.8986 18.5033 20.1711C18.3091 18.7124 16.9434 17.4311 15.2147 17.6794Z" fill="#A169F7"/>
<path fill-rule="evenodd" clip-rule="evenodd" d="M21.5811 28.3807C20.9962 28.4685 20.4923 28.9946 20.6007 29.7025C20.6888 30.2778 21.2296 30.7745 21.9233 30.6662C22.4949 30.577 22.9892 30.0363 22.8874 29.3554C22.8017 28.7828 22.2691 28.2774 21.5811 28.3807Z" fill="black"/>
<path fill-rule="evenodd" clip-rule="evenodd" d="M8.27148 34.7261H10.4654L9.37537 31.7344C9.34865 31.7617 8.2897 34.6006 8.27148 34.7261Z" fill="white"/>
<path d="M34.9695 0.460938L6.26209 0.460938C3.08517 0.460938 0.509766 3.04513 0.509766 6.23289L0.509766 34.955C0.509766 38.1427 3.08517 40.7269 6.26209 40.7269H34.9695C38.1464 40.7269 40.7218 38.1427 40.7218 34.955V6.23289C40.7218 3.04513 38.1464 0.460938 34.9695 0.460938Z" fill="url(#paint0_linear_1654_240)"/>
<path fill-rule="evenodd" clip-rule="evenodd" d="M0.509057 23.3959C0.425036 27.5472 0.440515 31.2755 0.545635 35.426C0.75879 35.2826 7.73722 26.3077 8.6076 25.1614C8.9311 24.7354 9.39574 24.1717 9.70031 23.6935C9.86825 24.0004 7.25398 33.1834 7.31022 33.7601L13.5603 36.2653C14.0274 36.4564 15.3375 37.0457 15.7352 37.0954C15.9246 36.9338 18.3242 33.2395 18.6965 32.6958C21.1279 29.1453 23.5835 25.2892 26.0184 21.673C26.4386 21.049 27.113 20.1538 27.4659 19.4812C27.591 19.6843 27.3007 20.4291 27.2431 20.6751C26.8775 22.2371 25.0653 29.1083 25.1023 29.5229C26.1117 30.095 27.3858 30.6705 28.4374 31.1979C28.9301 31.445 31.4711 32.806 31.886 32.8622L40.7211 23.9602C40.7211 23.1779 40.7211 14.8487 40.7211 13.4847C39.874 14.3718 39.0008 15.1289 38.1049 15.9096C37.5965 16.3605 35.5396 18.2515 35.2284 18.3662L35.7048 16.216L37.7253 7.38926L29.2967 4.04688C29.0263 4.24874 20.8791 15.83 20.8367 15.9272C20.5893 16.1479 19.1104 18.3174 18.7564 18.807C18.4623 19.2137 16.9111 21.4988 16.6292 21.6712C16.7566 20.4696 18.3499 13.6293 18.2165 13.3659C18.0535 13.1938 11.6845 10.0248 11.4432 9.97909C11.3164 10.2331 10.9839 10.5859 10.7654 10.8592L4.57997 18.3964C4.20503 18.8516 0.757624 23.288 0.509057 23.3959Z" fill="#FFD522"/>
</g>
<defs>
<linearGradient id="paint0_linear_1654_240" x1="2.83526" y1="11.1949" x2="38.4488" y2="29.893" gradientUnits="userSpaceOnUse">
<stop stop-color="#31312F"/>
<stop offset="0.309804" stop-color="#282628"/>
<stop offset="1" stop-color="#1F1B20"/>
</linearGradient>
<clipPath id="clip0_1654_240">
<rect x="0.583984" y="0.585938" width="40" height="40" rx="7" fill="white"/>
</clipPath>
</defs>
</svg>
