<svg width="41" height="41" viewBox="0 0 41 41" fill="none" xmlns="http://www.w3.org/2000/svg">
<g clip-path="url(#clip0_1654_222)">
<rect x="0.0371094" y="0.0390625" width="40" height="40" rx="7" fill="white"/>
<path fill-rule="evenodd" clip-rule="evenodd" d="M20.5664 19.9513C20.5664 22.5667 21.9989 24.6153 24.0658 25.644C25.7317 26.473 27.8939 26.501 29.5632 25.6576C30.1284 25.372 30.4596 25.1522 30.9155 24.7656C31.0631 24.6405 31.1752 24.5224 31.3078 24.3905C32.1927 23.5105 33.0909 21.9719 33.0909 20.1579V19.8923C33.0909 16.6399 30.251 13.7578 26.9852 13.7578C25.5281 13.7578 24.3341 14.104 23.2091 14.9075C22.292 15.5626 21.6063 16.3877 21.1252 17.4281C20.7977 18.1362 20.5664 19.0542 20.5664 19.9513Z" fill="#97CF26"/>
<path fill-rule="evenodd" clip-rule="evenodd" d="M4.60352 37.4526L6.5028 37.4533L7.17978 35.6234L10.413 35.6204C10.4864 35.6204 10.5023 35.7453 10.5293 35.8171C10.5611 35.9019 10.5865 35.9768 10.6163 36.0563C10.6746 36.212 10.7318 36.3697 10.7893 36.5246L11.0512 37.2339C11.0944 37.3504 11.0956 37.4562 11.1916 37.4565C11.6342 37.4575 12.6543 37.4732 13.0362 37.4533L9.51212 27.8438L8.13357 27.8455C8.05447 27.9789 5.31471 35.5135 5.03776 36.2516C4.97181 36.4275 4.62149 37.3507 4.60352 37.4526Z" fill="black"/>
<path fill-rule="evenodd" clip-rule="evenodd" d="M32.2608 30.7376C31.4763 30.799 30.6771 31.1245 30.1299 31.6388C29.9031 31.8519 29.7171 32.0587 29.536 32.3416C28.5978 33.8074 28.9493 35.6599 30.1717 36.7329C30.7513 37.2416 31.6966 37.676 32.7864 37.5949C34.6118 37.4592 36.1755 35.9109 36.0221 33.8946C35.8844 32.0857 34.2461 30.5823 32.2608 30.7376Z" fill="black"/>
<path fill-rule="evenodd" clip-rule="evenodd" d="M9.91797 7.86906V8.65184C10.0289 8.952 9.9429 10.0394 10.9668 11.3742C11.1712 11.6407 11.3482 11.8121 11.572 12.0386C12.4513 12.9283 13.9239 13.4521 15.2621 13.4016C17.9969 13.2984 20.2108 11.0621 20.2149 8.26177C20.2191 5.48722 17.984 3.17894 15.262 3.1111C12.68 3.04678 10.4689 4.7826 10.0015 7.30933C9.97448 7.45507 9.95535 7.77029 9.91797 7.86906Z" fill="#00AAFE"/>
<path fill-rule="evenodd" clip-rule="evenodd" d="M24.4752 30.8914L23.0593 30.8945L23.0586 32.3419L24.4699 32.3466C24.4888 32.4744 24.4756 34.5053 24.4756 34.6912C24.4756 35.49 24.4777 36.097 24.8665 36.6736C25.1601 37.1091 25.6313 37.4178 26.3561 37.5395C27.1605 37.6747 27.7089 37.5587 28.4076 37.3362L28.1972 35.9194C28.1005 35.9231 27.9542 35.9662 27.8481 35.9819C27.3921 36.0489 26.8098 36.0273 26.5004 35.6978C26.2799 35.4629 26.2677 35.1531 26.2677 34.7431C26.2677 34.5475 26.2555 32.484 26.2723 32.3503L28.4111 32.3459L28.411 30.897L26.274 30.8938L26.2675 29.0867L24.4756 29.0859L24.4752 30.8914Z" fill="black"/>
<path fill-rule="evenodd" clip-rule="evenodd" d="M14.8755 37.4572H17.1437C17.2286 37.1939 17.3416 36.9193 17.4409 36.6468C17.5433 36.3659 17.6409 36.0989 17.7434 35.8239C17.8554 35.5236 19.5406 30.9777 19.5442 30.8911L17.7693 30.8906C17.7141 30.974 16.3765 34.6569 16.2366 35.043C16.2049 35.1306 16.0696 35.5522 16.0063 35.6219C16.0034 35.625 15.9985 35.6296 15.9942 35.633C15.9497 35.4466 14.8285 32.462 14.6914 32.0719C14.6323 31.9037 14.301 30.9762 14.2508 30.8906H12.4785C12.4744 30.9777 14.7745 37.1721 14.8755 37.4572Z" fill="black"/>
<path fill-rule="evenodd" clip-rule="evenodd" d="M26.4861 4.24033C25.2472 4.37052 24.3541 4.946 23.8056 5.58568C23.1922 6.30103 22.6985 7.29377 22.8083 8.60899C22.9827 10.6975 24.8332 12.4751 27.1916 12.2735C29.274 12.0955 31.0564 10.2376 30.8446 7.89061C30.6566 5.80748 28.7769 3.99966 26.4861 4.24033Z" fill="#FF6163"/>
<path fill-rule="evenodd" clip-rule="evenodd" d="M20.2969 37.4506L22.0895 37.4574L22.0929 30.8906L20.3022 30.8908L20.2969 37.4506Z" fill="black"/>
<path fill-rule="evenodd" clip-rule="evenodd" d="M32.3218 32.4344C31.3195 32.5505 30.6048 33.4212 30.7214 34.3851C30.8308 35.2892 31.665 36.0633 32.726 35.9401C33.6243 35.8358 34.4311 35.0332 34.3082 33.9943C34.2004 33.0825 33.3644 32.3136 32.3218 32.4344Z" fill="white"/>
<path fill-rule="evenodd" clip-rule="evenodd" d="M14.6678 17.1326C13.1856 17.3454 11.9287 18.682 12.1757 20.4403C12.3804 21.8974 13.7507 23.1537 15.4794 22.9079C16.9396 22.7002 18.1866 21.3517 17.9565 19.6242C17.7622 18.1655 16.3965 16.8843 14.6678 17.1326Z" fill="#A169F7"/>
<path fill-rule="evenodd" clip-rule="evenodd" d="M21.0342 27.8338C20.4494 27.9217 19.9454 28.4477 20.0539 29.1556C20.1419 29.731 20.6827 30.2277 21.3764 30.1194C21.9481 30.0301 22.4423 29.4894 22.3405 28.8085C22.2548 28.2359 21.7222 27.7305 21.0342 27.8338Z" fill="black"/>
<path fill-rule="evenodd" clip-rule="evenodd" d="M7.72461 34.1792H9.91857L8.82849 31.1875C8.80178 31.2149 7.74282 34.0538 7.72461 34.1792Z" fill="white"/>
</g>
<defs>
<clipPath id="clip0_1654_222">
<rect x="0.0371094" y="0.0390625" width="40" height="40" rx="7" fill="white"/>
</clipPath>
</defs>
</svg>
