<svg width="40" height="40" viewBox="0 0 40 40" fill="none" xmlns="http://www.w3.org/2000/svg">
<rect width="40" height="40" rx="7" fill="url(#paint0_linear_1648_4)"/>
<path fill-rule="evenodd" clip-rule="evenodd" d="M11.7717 12.2021L9.7707 14.9128C9.51908 15.2286 7.93742 17.279 7.77333 17.6412L9.02996 17.7641C8.60039 18.1389 8.00521 18.4064 7.57506 18.7859L7.47978 18.8822C7.86236 18.8519 8.74124 18.7128 9.0437 18.7921C8.55248 18.9869 7.98724 19.2318 7.51022 19.4503C7.11883 19.6296 6.29777 19.8854 6 20.1301L8.62013 20.1293L7.45267 20.516C7.8417 20.66 8.26633 20.6779 8.64515 20.8286C8.83943 20.9057 8.73232 20.8579 8.81558 20.9233L7.34954 20.9749C7.68666 21.2803 13.8194 23.5481 15.6911 24.323C15.9322 24.4229 18.0163 26.0213 19.9545 25.9998C21.6275 25.9812 24.6809 24.1534 25.0758 23.9879C27.174 23.1093 27.3218 23.108 29.4424 22.2812C29.9823 22.0708 30.5044 21.8569 31.0338 21.6512C31.4496 21.4897 32.2535 21.2144 32.6151 21.0113C32.2943 20.8584 31.5885 20.9522 31.1592 20.915L31.3225 20.8343C31.3591 20.8213 31.4525 20.7997 31.4943 20.7894L32.5023 20.5394C32.3004 20.3595 31.6327 20.2519 31.3534 20.1401L34 20.1291C33.5446 19.8175 31.5093 19.0442 30.9341 18.7764L32.5157 18.8772L31.7371 18.3144C31.4967 18.1579 31.1568 17.986 30.9631 17.7638C31.1732 17.7366 31.3925 17.724 31.6071 17.7024L32.211 17.6028C32.0655 17.3602 31.8884 17.1384 31.7166 16.9155L29.2437 13.5908C28.9256 13.1584 28.5007 12.6802 28.239 12.2021C28.6074 11.1103 29.1189 10.2431 29.3322 9.01624C29.5042 8.02674 29.6295 6.22946 28.2629 6.00104C28.2759 6.02318 23.0568 9.17017 23.0787 9.15906C28.5416 6.37701 28.3563 6.20182 28.3689 6.22192C28.6085 6.6031 28.7923 6.75772 28.8427 7.32769C28.9568 8.61753 27.7729 10.9321 27.1976 11.3584C26.4196 10.6066 24.7433 9.52924 23.4331 9.45231C22.9622 9.42448 22.6705 9.41926 22.5399 9.74907C22.3218 10.3008 22.1209 10.8609 21.9077 11.4294C21.7136 11.9471 21.0664 13.8047 20.8092 14.2784C20.7165 14.4489 20.6633 14.4413 20.5597 14.609C19.8609 15.7411 20.8045 17.2319 21.3595 17.8678C21.8284 17.3213 21.8347 16.9146 22.8164 16.5747C24.241 16.0815 25.8498 16.975 26.991 17.6505C27.3222 17.8468 28.382 18.5757 28.5591 18.8091C28.4146 19.0247 26.6098 20.2779 26.2741 20.5175C26.066 20.6656 25.8916 20.7974 25.6991 20.9464C25.351 21.2157 24.2259 22.1119 23.9341 22.1945L23.8339 22.0657L24.0022 21.8867C24.4238 21.568 25.0112 21.2922 25.36 20.9184C24.8344 21.0577 24.2194 21.4662 23.7029 21.5824C23.8176 21.4704 23.9585 21.3071 24.088 21.1892C24.2284 21.0606 24.3585 21.0113 24.4783 20.8237C24.1375 21.0183 23.7364 21.2433 23.3771 21.4168C23.2316 21.3324 22.9911 21.0653 22.8499 20.9026C22.6798 20.7067 22.499 20.5469 22.3429 20.3547C22.1544 20.1233 22.0521 20.0342 21.8355 19.8067C21.6263 19.5868 21.5629 19.4712 21.3064 19.2457L20.4609 21.876C21.6405 22.119 22.1001 23.7881 21.1761 24.605C19.679 25.9281 17.5655 24.1455 18.6427 22.5242C18.8923 22.1484 19.1127 22.0874 19.5101 21.8503L18.7067 19.2403L17.67 20.3037C17.4307 20.5748 16.8802 21.2683 16.6341 21.4158L15.5036 20.8184C15.5427 20.8472 15.7846 21.1116 15.875 21.1849C16.041 21.3196 16.1445 21.4513 16.2964 21.5787C15.8146 21.518 15.1206 21.0386 14.6228 20.9102C14.8471 21.0977 15.1187 21.2855 15.3773 21.4641L15.9701 21.876C16.1096 21.977 16.0794 21.9341 16.1459 22.06L16.0492 22.2078C15.819 22.1097 15.1375 21.5633 14.8843 21.3778L12.5664 19.6818C12.2283 19.4433 11.6877 19.1006 11.4373 18.8091C11.5808 18.6007 11.6191 18.6383 11.801 18.4925C11.928 18.3909 12.0561 18.2895 12.1895 18.1945C12.3405 18.0869 12.449 18.0161 12.5974 17.913C13.9515 16.975 16.5954 15.58 18.0399 17.1057L18.6516 17.8637C19.3268 17.2077 20.0591 15.5395 19.4172 14.5915C18.9614 13.9181 17.8467 10.7371 17.4703 9.74639C17.344 9.41379 17.0303 9.43075 16.6334 9.44896C15.2194 9.51333 13.7169 10.5985 12.8125 11.3547C12.2194 10.8998 10.5347 7.58266 11.6647 6.12623C23.1277 12.5543 11.7235 6.05718 11.7532 6C10.5033 6.21984 10.4683 7.77186 10.686 9.00965C10.788 9.59059 10.9646 10.1149 11.1463 10.6506C11.3298 11.1911 11.6098 11.7084 11.7717 12.2021Z" fill="white"/>
<path fill-rule="evenodd" clip-rule="evenodd" d="M22.7035 18.0623C21.4126 18.5146 22.0692 20.3176 23.2978 19.9512C24.5842 19.5676 23.9346 17.6309 22.7035 18.0623Z" fill="white"/>
<path fill-rule="evenodd" clip-rule="evenodd" d="M16.695 18.0553C15.4976 18.4075 15.9446 20.3472 17.2946 19.9455C18.4983 19.5874 18.0715 17.6505 16.695 18.0553Z" fill="white"/>
<path d="M11.4403 32V28.3636H13.6349V28.7543H11.8807V29.983H13.5213V30.3736H11.8807V31.6094H13.6634V32H11.4403ZM15.9343 30.2457V30.6364H14.3434V30.2457H15.9343ZM17.0906 30.3594V32H16.6716V29.2727H17.0764V29.6989H17.1119C17.1759 29.5604 17.2729 29.4491 17.4031 29.3651C17.5334 29.2798 17.7014 29.2372 17.9074 29.2372C18.0921 29.2372 18.2536 29.2751 18.3921 29.3509C18.5306 29.4254 18.6383 29.5391 18.7153 29.6918C18.7922 29.8433 18.8307 30.035 18.8307 30.267V32H18.4117V30.2955C18.4117 30.0812 18.356 29.9143 18.2448 29.7947C18.1335 29.674 17.9808 29.6136 17.7867 29.6136C17.6529 29.6136 17.5334 29.6426 17.428 29.7006C17.3238 29.7586 17.2416 29.8433 17.1812 29.9545C17.1208 30.0658 17.0906 30.2008 17.0906 30.3594ZM20.7044 32.0568C20.4582 32.0568 20.2421 31.9982 20.0563 31.881C19.8716 31.7638 19.7272 31.5999 19.623 31.3892C19.5201 31.1785 19.4686 30.9323 19.4686 30.6506C19.4686 30.3665 19.5201 30.1185 19.623 29.9066C19.7272 29.6947 19.8716 29.5302 20.0563 29.413C20.2421 29.2958 20.4582 29.2372 20.7044 29.2372C20.9506 29.2372 21.166 29.2958 21.3507 29.413C21.5365 29.5302 21.6809 29.6947 21.7839 29.9066C21.8881 30.1185 21.9402 30.3665 21.9402 30.6506C21.9402 30.9323 21.8881 31.1785 21.7839 31.3892C21.6809 31.5999 21.5365 31.7638 21.3507 31.881C21.166 31.9982 20.9506 32.0568 20.7044 32.0568ZM20.7044 31.6804C20.8914 31.6804 21.0453 31.6325 21.166 31.5366C21.2868 31.4407 21.3761 31.3146 21.4341 31.1584C21.4921 31.0021 21.5211 30.8329 21.5211 30.6506C21.5211 30.4683 21.4921 30.2984 21.4341 30.141C21.3761 29.9835 21.2868 29.8563 21.166 29.7592C21.0453 29.6622 20.8914 29.6136 20.7044 29.6136C20.5173 29.6136 20.3635 29.6622 20.2427 29.7592C20.122 29.8563 20.0326 29.9835 19.9746 30.141C19.9166 30.2984 19.8876 30.4683 19.8876 30.6506C19.8876 30.8329 19.9166 31.0021 19.9746 31.1584C20.0326 31.3146 20.122 31.4407 20.2427 31.5366C20.3635 31.6325 20.5173 31.6804 20.7044 31.6804ZM23.7659 29.2727V29.6278H22.3525V29.2727H23.7659ZM22.7645 28.6193H23.1835V31.2188C23.1835 31.3371 23.2007 31.4259 23.235 31.4851C23.2705 31.5431 23.3155 31.5821 23.3699 31.6023C23.4256 31.6212 23.4842 31.6307 23.5457 31.6307C23.5919 31.6307 23.6298 31.6283 23.6594 31.6236C23.689 31.6177 23.7126 31.6129 23.7304 31.6094L23.8156 31.9858C23.7872 31.9964 23.7475 32.0071 23.6966 32.0178C23.6457 32.0296 23.5812 32.0355 23.5031 32.0355C23.3847 32.0355 23.2687 32.0101 23.1551 31.9592C23.0426 31.9083 22.9491 31.8307 22.8746 31.7266C22.8012 31.6224 22.7645 31.491 22.7645 31.3324V28.6193ZM25.5104 32.0568C25.2476 32.0568 25.0209 31.9988 24.8303 31.8828C24.641 31.7656 24.4948 31.6023 24.3918 31.3928C24.29 31.1821 24.2391 30.937 24.2391 30.6577C24.2391 30.3783 24.29 30.1321 24.3918 29.919C24.4948 29.7048 24.638 29.5379 24.8215 29.4183C25.0061 29.2976 25.2216 29.2372 25.4678 29.2372C25.6098 29.2372 25.7501 29.2609 25.8886 29.3082C26.0271 29.3556 26.1531 29.4325 26.2668 29.5391C26.3804 29.6444 26.471 29.7841 26.5384 29.9581C26.6059 30.1321 26.6396 30.3464 26.6396 30.6009V30.7784H24.5374V30.4162H26.2135C26.2135 30.2623 26.1827 30.125 26.1212 30.0043C26.0608 29.8835 25.9744 29.7882 25.8619 29.7184C25.7507 29.6486 25.6193 29.6136 25.4678 29.6136C25.3009 29.6136 25.1565 29.6551 25.0345 29.7379C24.9138 29.8196 24.8209 29.9261 24.7558 30.0575C24.6907 30.1889 24.6581 30.3298 24.6581 30.4801V30.7216C24.6581 30.9276 24.6936 31.1022 24.7646 31.2454C24.8369 31.3874 24.9369 31.4957 25.0647 31.5703C25.1926 31.6437 25.3411 31.6804 25.5104 31.6804C25.6205 31.6804 25.7199 31.665 25.8087 31.6342C25.8986 31.6023 25.9762 31.5549 26.0413 31.4922C26.1064 31.4283 26.1567 31.349 26.1922 31.2543L26.597 31.3679C26.5544 31.5052 26.4828 31.6259 26.3822 31.7301C26.2816 31.8331 26.1573 31.9136 26.0093 31.9716C25.8614 32.0284 25.695 32.0568 25.5104 32.0568Z" fill="white"/>
<circle cx="20" cy="20" r="18.5" stroke="white"/>
<defs>
<linearGradient id="paint0_linear_1648_4" x1="40" y1="0" x2="-7.5" y2="45.5" gradientUnits="userSpaceOnUse">
<stop stop-color="#969277"/>
<stop offset="1" stop-color="#DBD4CB"/>
</linearGradient>
</defs>
</svg>
