<svg width="40" height="40" viewBox="0 0 40 40" fill="none" xmlns="http://www.w3.org/2000/svg">
<rect width="40" height="40" rx="7" fill="url(#paint0_linear_1648_4)"/>
<path fill-rule="evenodd" clip-rule="evenodd" d="M20 2C29.9411 2 38 10.0589 38 20C38 29.9411 29.9411 38 20 38C10.0589 38 2 29.9411 2 20C2 10.0589 10.0589 2 20 2ZM20 2.7121C29.5478 2.7121 37.2879 10.4522 37.2879 20C37.2879 29.5478 29.5478 37.2879 20 37.2879C10.4522 37.2879 2.7121 29.5478 2.7121 20C2.7121 10.4522 10.4522 2.7121 20 2.7121Z" fill="black" stroke="black" stroke-miterlimit="22.9256"/>
<path fill-rule="evenodd" clip-rule="evenodd" d="M11.5656 14.0558L9.63603 16.7025C9.3934 17.0109 7.86823 19.0128 7.71 19.3666L8.92174 19.4865C8.50752 19.8525 7.93359 20.1137 7.51881 20.4842L7.42693 20.5782C7.79585 20.5486 8.64333 20.4129 8.935 20.4903C8.46132 20.6805 7.91627 20.9196 7.45628 21.1329C7.07887 21.308 6.28714 21.5578 6 21.7968L8.52656 21.796L7.40079 22.1735C7.77592 22.3141 8.18539 22.3316 8.55068 22.4787C8.73802 22.554 8.63474 22.5073 8.71502 22.5712L7.30134 22.6216C7.62642 22.9198 13.5401 25.1341 15.345 25.8907C15.5775 25.9883 17.5871 27.5489 19.4562 27.5279C21.0693 27.5098 24.0137 25.725 24.3945 25.5635C26.4177 24.7056 26.5603 24.7044 28.6052 23.8971C29.1258 23.6916 29.6293 23.4828 30.1397 23.2819C30.5407 23.1243 31.3159 22.8555 31.6646 22.6571C31.3552 22.5078 30.6746 22.5994 30.2606 22.5631L30.4182 22.4843C30.4534 22.4716 30.5434 22.4506 30.5837 22.4405L31.5558 22.1964C31.3611 22.0207 30.7173 21.9156 30.448 21.8065L33 21.7957C32.5609 21.4915 30.5983 20.7365 30.0436 20.4749L31.5688 20.5733L30.8179 20.0239C30.5861 19.8711 30.2583 19.7032 30.0716 19.4862C30.2742 19.4597 30.4857 19.4473 30.6926 19.4263L31.2749 19.3291C31.1346 19.0921 30.9638 18.8756 30.7982 18.658L28.4135 15.4117C28.1068 14.9895 27.6971 14.5226 27.4447 14.0558C27.8 12.9897 28.2933 12.143 28.4989 10.9451C28.6648 9.97892 28.7856 8.22405 27.4678 8.00102C27.4803 8.02263 22.4476 11.0954 22.4688 11.0845C27.7365 8.36811 27.5579 8.19706 27.57 8.21668C27.8011 8.58887 27.9782 8.73985 28.0268 9.29636C28.1369 10.5558 26.9953 12.8157 26.4405 13.232C25.6903 12.4979 24.0739 11.446 22.8105 11.3709C22.3564 11.3437 22.0751 11.3386 21.9492 11.6606C21.7389 12.1993 21.5452 12.7462 21.3396 13.3013C21.1524 13.8068 20.5283 15.6206 20.2803 16.083C20.1909 16.2495 20.1396 16.2422 20.0397 16.4059C19.3659 17.5113 20.2758 18.9669 20.811 19.5878C21.2631 19.0542 21.2691 18.6571 22.2158 18.3252C23.5896 17.8436 25.1409 18.7161 26.2413 19.3756C26.5607 19.5673 27.5826 20.2789 27.7534 20.5069C27.6141 20.7174 25.8737 21.9411 25.55 22.175C25.3494 22.3196 25.1812 22.4483 24.9956 22.5937C24.6599 22.8567 23.5749 23.7317 23.2936 23.8124L23.197 23.6867L23.3593 23.5119C23.7658 23.2007 24.3323 22.9314 24.6686 22.5664C24.1618 22.7025 23.5687 23.1013 23.0707 23.2148C23.1812 23.1054 23.3171 22.946 23.442 22.8308C23.5774 22.7053 23.7028 22.6571 23.8184 22.4739C23.4898 22.6639 23.1029 22.8837 22.7564 23.053C22.6162 22.9707 22.3843 22.7098 22.2481 22.551C22.0841 22.3597 21.9098 22.2036 21.7592 22.016C21.5774 21.7901 21.4788 21.7031 21.2699 21.481C21.0682 21.2662 21.007 21.1534 20.7598 20.9332L19.9444 23.5014C21.0819 23.7386 21.5251 25.3684 20.6341 26.1661C19.1904 27.4579 17.1524 25.7173 18.1912 24.1344C18.4319 23.7674 18.6444 23.7078 19.0276 23.4763L18.2529 20.9279L17.2532 21.9662C17.0225 22.2309 16.4916 22.908 16.2543 23.0521L15.1642 22.4688C15.2019 22.4969 15.4351 22.755 15.5224 22.8266C15.6824 22.9581 15.7822 23.0868 15.9286 23.2111C15.464 23.1519 14.7948 22.6838 14.3148 22.5584C14.5311 22.7414 14.793 22.9248 15.0424 23.0992L15.614 23.5014C15.7485 23.6 15.7194 23.5582 15.7836 23.6811L15.6903 23.8254C15.4683 23.7296 14.8111 23.1961 14.567 23.015L12.3319 21.359C12.0058 21.1261 11.4846 20.7915 11.2431 20.5069C11.3815 20.3034 11.4184 20.3401 11.5939 20.1977C11.7163 20.0985 11.8398 19.9995 11.9684 19.9068C12.1141 19.8018 12.2186 19.7325 12.3618 19.6319C13.6675 18.7161 16.217 17.3539 17.6099 18.8436L18.1998 19.5838C18.8509 18.9433 19.557 17.3144 18.9381 16.3888C18.4985 15.7312 17.4236 12.6253 17.0606 11.658C16.9389 11.3332 16.6363 11.3498 16.2536 11.3676C14.8901 11.4304 13.4413 12.49 12.5692 13.2283C11.9973 12.7842 10.3727 9.54531 11.4624 8.12325C22.516 14.3997 11.5191 8.05583 11.5478 8C10.3425 8.21465 10.3087 9.73005 10.5186 10.9386C10.617 11.5059 10.7873 12.0178 10.9625 12.5409C11.1394 13.0686 11.4094 13.5737 11.5656 14.0558Z" fill="black"/>
<path fill-rule="evenodd" clip-rule="evenodd" d="M22.6044 18.5097C21.2874 18.9774 21.9574 20.8416 23.2107 20.4629C24.5232 20.0662 23.8604 18.0637 22.6044 18.5097Z" fill="black"/>
<path fill-rule="evenodd" clip-rule="evenodd" d="M16.1052 18.5101C14.9044 18.8729 15.3527 20.8713 16.7066 20.4575C17.9137 20.0885 17.4857 18.0931 16.1052 18.5101Z" fill="black"/>
<path d="M12.4403 32V28.3636H14.6349V28.7543H12.8807V29.983H14.5213V30.3736H12.8807V31.6094H14.6634V32H12.4403ZM16.9343 30.2457V30.6364H15.3434V30.2457H16.9343ZM18.0906 30.3594V32H17.6716V29.2727H18.0764V29.6989H18.1119C18.1759 29.5604 18.2729 29.4491 18.4031 29.3651C18.5334 29.2798 18.7014 29.2372 18.9074 29.2372C19.0921 29.2372 19.2536 29.2751 19.3921 29.3509C19.5306 29.4254 19.6383 29.5391 19.7153 29.6918C19.7922 29.8433 19.8307 30.035 19.8307 30.267V32H19.4117V30.2955C19.4117 30.0812 19.356 29.9143 19.2448 29.7947C19.1335 29.674 18.9808 29.6136 18.7867 29.6136C18.6529 29.6136 18.5334 29.6426 18.428 29.7006C18.3238 29.7586 18.2416 29.8433 18.1812 29.9545C18.1208 30.0658 18.0906 30.2008 18.0906 30.3594ZM21.7044 32.0568C21.4582 32.0568 21.2421 31.9982 21.0563 31.881C20.8716 31.7638 20.7272 31.5999 20.623 31.3892C20.5201 31.1785 20.4686 30.9323 20.4686 30.6506C20.4686 30.3665 20.5201 30.1185 20.623 29.9066C20.7272 29.6947 20.8716 29.5302 21.0563 29.413C21.2421 29.2958 21.4582 29.2372 21.7044 29.2372C21.9506 29.2372 22.166 29.2958 22.3507 29.413C22.5365 29.5302 22.6809 29.6947 22.7839 29.9066C22.8881 30.1185 22.9402 30.3665 22.9402 30.6506C22.9402 30.9323 22.8881 31.1785 22.7839 31.3892C22.6809 31.5999 22.5365 31.7638 22.3507 31.881C22.166 31.9982 21.9506 32.0568 21.7044 32.0568ZM21.7044 31.6804C21.8914 31.6804 22.0453 31.6325 22.166 31.5366C22.2868 31.4407 22.3761 31.3146 22.4341 31.1584C22.4921 31.0021 22.5211 30.8329 22.5211 30.6506C22.5211 30.4683 22.4921 30.2984 22.4341 30.141C22.3761 29.9835 22.2868 29.8563 22.166 29.7592C22.0453 29.6622 21.8914 29.6136 21.7044 29.6136C21.5173 29.6136 21.3635 29.6622 21.2427 29.7592C21.122 29.8563 21.0326 29.9835 20.9746 30.141C20.9166 30.2984 20.8876 30.4683 20.8876 30.6506C20.8876 30.8329 20.9166 31.0021 20.9746 31.1584C21.0326 31.3146 21.122 31.4407 21.2427 31.5366C21.3635 31.6325 21.5173 31.6804 21.7044 31.6804ZM24.7659 29.2727V29.6278H23.3525V29.2727H24.7659ZM23.7645 28.6193H24.1835V31.2188C24.1835 31.3371 24.2007 31.4259 24.235 31.4851C24.2705 31.5431 24.3155 31.5821 24.3699 31.6023C24.4256 31.6212 24.4842 31.6307 24.5457 31.6307C24.5919 31.6307 24.6298 31.6283 24.6594 31.6236C24.689 31.6177 24.7126 31.6129 24.7304 31.6094L24.8156 31.9858C24.7872 31.9964 24.7475 32.0071 24.6966 32.0178C24.6457 32.0296 24.5812 32.0355 24.5031 32.0355C24.3847 32.0355 24.2687 32.0101 24.1551 31.9592C24.0426 31.9083 23.9491 31.8307 23.8746 31.7266C23.8012 31.6224 23.7645 31.491 23.7645 31.3324V28.6193ZM26.5104 32.0568C26.2476 32.0568 26.0209 31.9988 25.8303 31.8828C25.641 31.7656 25.4948 31.6023 25.3918 31.3928C25.29 31.1821 25.2391 30.937 25.2391 30.6577C25.2391 30.3783 25.29 30.1321 25.3918 29.919C25.4948 29.7048 25.638 29.5379 25.8215 29.4183C26.0061 29.2976 26.2216 29.2372 26.4678 29.2372C26.6098 29.2372 26.7501 29.2609 26.8886 29.3082C27.0271 29.3556 27.1531 29.4325 27.2668 29.5391C27.3804 29.6444 27.471 29.7841 27.5384 29.9581C27.6059 30.1321 27.6396 30.3464 27.6396 30.6009V30.7784H25.5374V30.4162H27.2135C27.2135 30.2623 27.1827 30.125 27.1212 30.0043C27.0608 29.8835 26.9744 29.7882 26.8619 29.7184C26.7507 29.6486 26.6193 29.6136 26.4678 29.6136C26.3009 29.6136 26.1565 29.6551 26.0345 29.7379C25.9138 29.8196 25.8209 29.9261 25.7558 30.0575C25.6907 30.1889 25.6581 30.3298 25.6581 30.4801V30.7216C25.6581 30.9276 25.6936 31.1022 25.7646 31.2454C25.8369 31.3874 25.9369 31.4957 26.0647 31.5703C26.1926 31.6437 26.3411 31.6804 26.5104 31.6804C26.6205 31.6804 26.7199 31.665 26.8087 31.6342C26.8986 31.6023 26.9762 31.5549 27.0413 31.4922C27.1064 31.4283 27.1567 31.349 27.1922 31.2543L27.597 31.3679C27.5544 31.5052 27.4828 31.6259 27.3822 31.7301C27.2816 31.8331 27.1573 31.9136 27.0093 31.9716C26.8614 32.0284 26.695 32.0568 26.5104 32.0568Z" fill="black"/>
<defs>
<linearGradient id="paint0_linear_1648_4" x1="56" y1="-4" x2="-1.66893e-06" y2="40" gradientUnits="userSpaceOnUse">
<stop stop-color="#969277"/>
<stop offset="1" stop-color="#DBD4CB"/>
</linearGradient>
</defs>
</svg>
