<svg width="41" height="41" viewBox="0 0 41 41" fill="none" xmlns="http://www.w3.org/2000/svg">
<g clip-path="url(#clip0_1654_200)">
<rect x="0.853516" y="0.851562" width="40" height="40" rx="7" fill="white"/>
<path fill-rule="evenodd" clip-rule="evenodd" d="M21.3828 20.7638C21.3828 23.3792 22.8153 25.4278 24.8822 26.4565C26.5481 27.2855 28.7103 27.3135 30.3796 26.4701C30.9448 26.1845 31.276 25.9647 31.7319 25.5781C31.8795 25.453 31.9916 25.3349 32.1242 25.203C33.0091 24.323 33.9073 22.7844 33.9073 20.9704V20.7048C33.9073 17.4524 31.0674 14.5703 27.8016 14.5703C26.3445 14.5703 25.1505 14.9165 24.0255 15.72C23.1084 16.3751 22.4227 17.2002 21.9416 18.2406C21.6141 18.9487 21.3828 19.8667 21.3828 20.7638Z" fill="#97CF26"/>
<path fill-rule="evenodd" clip-rule="evenodd" d="M5.41992 38.2651L7.3192 38.2658L7.99619 36.4359L11.2294 36.4329C11.3028 36.4329 11.3187 36.5578 11.3457 36.6296C11.3775 36.7144 11.4029 36.7893 11.4327 36.8688C11.491 37.0245 11.5482 37.1822 11.6057 37.3371L11.8676 38.0464C11.9108 38.1629 11.912 38.2687 12.008 38.269C12.4506 38.27 13.4707 38.2857 13.8526 38.2658L10.3285 28.6562L8.94998 28.658C8.87088 28.7914 6.13111 36.326 5.85417 37.0641C5.78822 37.24 5.4379 38.1632 5.41992 38.2651Z" fill="black"/>
<path fill-rule="evenodd" clip-rule="evenodd" d="M33.0772 31.5501C32.2927 31.6115 31.4935 31.937 30.9463 32.4513C30.7195 32.6644 30.5335 32.8712 30.3524 33.1541C29.4142 34.6199 29.7657 36.4724 30.9881 37.5454C31.5677 38.0541 32.5131 38.4885 33.6028 38.4074C35.4283 38.2717 36.9919 36.7234 36.8385 34.7071C36.7008 32.8982 35.0625 31.3948 33.0772 31.5501Z" fill="black"/>
<path fill-rule="evenodd" clip-rule="evenodd" d="M10.7344 8.68156V9.46434C10.8453 9.7645 10.7593 10.8519 11.7832 12.1867C11.9876 12.4532 12.1646 12.6246 12.3885 12.8511C13.2677 13.7408 14.7404 14.2646 16.0785 14.2141C18.8133 14.1109 21.0272 11.8746 21.0314 9.07427C21.0355 6.29972 18.8004 3.99144 16.0784 3.9236C13.4964 3.85928 11.2853 5.5951 10.8179 8.12183C10.7909 8.26757 10.7718 8.58279 10.7344 8.68156Z" fill="#00AAFE"/>
<path fill-rule="evenodd" clip-rule="evenodd" d="M25.2916 31.7039L23.8758 31.707L23.875 33.1544L25.2863 33.1591C25.3052 33.2869 25.292 35.3178 25.292 35.5037C25.292 36.3025 25.2941 36.9095 25.6829 37.4861C25.9766 37.9216 26.4477 38.2303 27.1725 38.352C27.9769 38.4872 28.5253 38.3712 29.224 38.1487L29.0136 36.7319C28.9169 36.7356 28.7706 36.7787 28.6645 36.7944C28.2085 36.8614 27.6262 36.8398 27.3168 36.5103C27.0963 36.2754 27.0841 35.9656 27.0841 35.5556C27.0841 35.36 27.0719 33.2965 27.0887 33.1628L29.2275 33.1584L29.2274 31.7095L27.0904 31.7063L27.0839 29.8992L25.292 29.8984L25.2916 31.7039Z" fill="black"/>
<path fill-rule="evenodd" clip-rule="evenodd" d="M15.6919 38.2697H17.9601C18.045 38.0064 18.158 37.7318 18.2573 37.4593C18.3597 37.1784 18.4573 36.9114 18.5598 36.6364C18.6718 36.3361 20.357 31.7902 20.3606 31.7036L18.5857 31.7031C18.5305 31.7865 17.1929 35.4694 17.053 35.8555C17.0213 35.9431 16.886 36.3647 16.8227 36.4344C16.8198 36.4375 16.8149 36.4421 16.8106 36.4455C16.7661 36.2591 15.6449 33.2745 15.5078 32.8844C15.4487 32.7162 15.1174 31.7887 15.0672 31.7031H13.2949C13.2908 31.7902 15.5909 37.9846 15.6919 38.2697Z" fill="black"/>
<path fill-rule="evenodd" clip-rule="evenodd" d="M27.3026 5.05283C26.0636 5.18302 25.1705 5.7585 24.622 6.39818C24.0086 7.11353 23.5149 8.10627 23.6247 9.42149C23.7991 11.51 25.6496 13.2876 28.008 13.086C30.0904 12.908 31.8728 11.0501 31.661 8.70311C31.473 6.61998 29.5933 4.81216 27.3026 5.05283Z" fill="#FF6163"/>
<path fill-rule="evenodd" clip-rule="evenodd" d="M21.1133 38.2631L22.9059 38.2699L22.9093 31.7031L21.1186 31.7033L21.1133 38.2631Z" fill="black"/>
<path fill-rule="evenodd" clip-rule="evenodd" d="M33.1382 33.2469C32.1359 33.363 31.4213 34.2337 31.5379 35.1976C31.6472 36.1017 32.4814 36.8758 33.5424 36.7526C34.4407 36.6483 35.2475 35.8457 35.1246 34.8068C35.0168 33.895 34.1808 33.1261 33.1382 33.2469Z" fill="white"/>
<path fill-rule="evenodd" clip-rule="evenodd" d="M15.4842 17.9451C14.0021 18.1579 12.7451 19.4945 12.9921 21.2528C13.1968 22.7099 14.5671 23.9662 16.2958 23.7204C17.756 23.5127 19.003 22.1642 18.7729 20.4367C18.5786 18.978 17.213 17.6968 15.4842 17.9451Z" fill="#A169F7"/>
<path fill-rule="evenodd" clip-rule="evenodd" d="M21.8506 28.6463C21.2658 28.7342 20.7618 29.2602 20.8703 29.9681C20.9584 30.5435 21.4991 31.0402 22.1928 30.9319C22.7645 30.8426 23.2587 30.3019 23.1569 29.621C23.0713 29.0484 22.5386 28.543 21.8506 28.6463Z" fill="black"/>
<path fill-rule="evenodd" clip-rule="evenodd" d="M8.54102 34.9917H10.735L9.6449 32C9.61818 32.0274 8.55923 34.8663 8.54102 34.9917Z" fill="white"/>
<path d="M35.6424 0.726562H4.70341C1.27952 0.726562 -1.49609 3.50217 -1.49609 6.92607V37.7757C-1.49609 41.1996 1.27952 43.9752 4.70341 43.9752H35.6424C39.0663 43.9752 41.8419 41.1996 41.8419 37.7757V6.92607C41.8419 3.50217 39.0663 0.726562 35.6424 0.726562Z" fill="url(#paint0_linear_1654_200)"/>
<path fill-rule="evenodd" clip-rule="evenodd" d="M8.00114 28.387L8.34059 29.5452C8.89651 29.6078 9.65892 29.561 10.2262 29.5627C11.5582 29.5667 10.9591 29.6823 11.3822 28.8509C11.5519 27.9911 14.1991 19.0183 14.3366 18.8816L17.4331 29.5623L20.2454 29.5469L24.4052 14.7868L21.8808 14.8186C21.7098 15.1683 20.5297 19.7433 20.3226 20.5268C20.0648 21.5019 19.8005 22.4375 19.5431 23.4204L18.8182 26.0663C18.757 26.1764 18.786 26.1275 18.7209 26.1955L15.4061 14.7843L14.7589 14.7812L13.2034 14.783C12.9482 15.284 12.5647 16.9136 12.3612 17.5974L10.6884 23.3447C10.5618 23.7859 10.009 26.0098 9.79453 26.1772C9.57911 25.7719 6.92316 15.2037 6.67729 14.7874L4.2159 14.7848C4.16665 15.1495 5.8548 20.7449 6.0761 21.5544C6.70112 23.8409 7.45951 26.1327 8.00114 28.387Z" fill="#FBFAFB"/>
<path fill-rule="evenodd" clip-rule="evenodd" d="M36.1994 24.7779C36.1242 24.0961 35.8677 23.5041 35.4987 23.0002C34.9836 22.297 34.4292 22.1376 34.2388 21.869C34.4076 21.6799 34.6669 21.4936 34.8604 21.2521C36.2461 19.5225 35.8109 16.8655 33.9272 15.5796C32.6443 14.7038 31.8009 14.779 30.0816 14.779C29.2903 14.779 28.4989 14.7803 27.7076 14.7804C27.3853 14.7804 25.7248 14.6628 25.4821 14.8902L25.4629 29.5513C26.9643 29.6163 31.9503 29.6973 33.0833 29.3919C34.8644 28.9116 36.5509 27.2379 36.1994 24.7779ZM27.896 20.933C28.8941 20.9813 30.56 21.0093 31.5225 20.9312C32.5366 20.8488 33.2437 20.0075 33.2406 18.9911C33.2374 17.9538 32.515 17.183 31.5736 17.0723C30.7117 16.9708 28.8475 17.0212 27.9326 17.0611L27.896 20.933ZM27.9502 27.239C28.3786 27.3494 31.2375 27.309 31.8828 27.2744C32.9706 27.2163 33.7901 26.3649 33.8071 25.2501C33.8246 24.1049 33.0308 23.2317 31.9545 23.144C30.9214 23.0599 28.951 23.0821 27.8995 23.1452C27.8821 23.9134 27.7716 26.7454 27.9502 27.239Z" fill="#FBFAFB"/>
</g>
<defs>
<linearGradient id="paint0_linear_1654_200" x1="1.01018" y1="12.2556" x2="39.3357" y2="32.4462" gradientUnits="userSpaceOnUse">
<stop stop-color="#B6069D"/>
<stop offset="0.309804" stop-color="#CE0E8E"/>
<stop offset="1" stop-color="#E6167E"/>
</linearGradient>
<clipPath id="clip0_1654_200">
<rect x="0.853516" y="0.851562" width="40" height="40" rx="7" fill="white"/>
</clipPath>
</defs>
</svg>
